<?xml version="1.0" encoding="iso-8859-1"?>
<!-- Generator: Adobe Illustrator 19.0.0, SVG Export Plug-In . SVG Version: 6.00 Build 0)  -->
<svg version="1.1" id="Capa_1" xmlns="http://www.w3.org/2000/svg" xmlns:xlink="http://www.w3.org/1999/xlink" x="0px" y="0px"
	 viewBox="0 0 512 512" style="enable-background:new 0 0 512 512;" xml:space="preserve">
<g>
	<g>
		<path d="M332,181.09c-33.091,0-60,26.909-60,60h120C392,208.001,365.091,181.09,332,181.09z"/>
	</g>
</g>
<g>
	<g>
		<path d="M332,91.09c-16.538,0-30,13.462-30,30c0,16.538,13.462,30,30,30c16.538,0,30-13.462,30-30
			C362,104.553,348.539,91.09,332,91.09z"/>
	</g>
</g>
<g>
	<g>
		<path d="M332,0.091c-99.258,0-180,81.742-180,181c0,44.238,16.11,84.738,42.678,116.111l-29.824,29.824
			c-16.696-7.879-37.094-5.328-50.881,8.459l-13.184,13.184l63.633,63.633l13.184-13.184c12.87-12.87,17.402-32.814,8.677-51.099
			l29.606-29.606C247.263,344.981,287.763,361.09,332,361.09c99.258,0,180-80.742,180-180S431.258,0.091,332,0.091z M422,256.09
			c0,8.291-6.709,15-15,15H257c-8.291,0-15-6.709-15-15v-15c0-33.915,19.074-63.149,46.851-78.488
			C278.468,151.813,272,137.219,272,121.09c0-33.091,26.909-60,60-60s60,26.909,60,60c0,16.128-6.465,30.721-16.849,41.512
			C402.929,177.941,422,207.176,422,241.09V256.09z"/>
	</g>
</g>
<g>
	<g>
		<path d="M79.579,369.879L13.186,435.09c-17.582,17.582-17.582,46.051,0,63.633c17.582,17.582,46.051,17.582,63.633,0
			l66.392-65.211L79.579,369.879z"/>
	</g>
</g>
<g>
</g>
<g>
</g>
<g>
</g>
<g>
</g>
<g>
</g>
<g>
</g>
<g>
</g>
<g>
</g>
<g>
</g>
<g>
</g>
<g>
</g>
<g>
</g>
<g>
</g>
<g>
</g>
<g>
</g>
</svg>
